<mxfile host="app.diagrams.net" agent="Mozilla/5.0 (Macintosh; Intel Mac OS X 10_15_7) AppleWebKit/537.36 (KHTML, like Gecko) Chrome/128.0.0.0 Safari/537.36" version="27.1.1">
  <diagram name="Page-1" id="wK6UOAm2Ry6P2rxQTt4-">
    <mxGraphModel dx="956" dy="732" grid="1" gridSize="10" guides="1" tooltips="1" connect="1" arrows="1" fold="1" page="1" pageScale="1" pageWidth="850" pageHeight="1100" math="0" shadow="0">
      <root>
        <mxCell id="0" />
        <mxCell id="1" parent="0" />
        <mxCell id="Rc_bDY0J4DT7QfqLgyY9-2" value="Clase - User" style="swimlane;whiteSpace=wrap;html=1;startSize=50;" parent="1" vertex="1">
          <mxGeometry x="60" y="190" width="160" height="580" as="geometry">
            <mxRectangle x="320" y="200" width="110" height="30" as="alternateBounds" />
          </mxGeometry>
        </mxCell>
        <mxCell id="Rc_bDY0J4DT7QfqLgyY9-3" value="&lt;p data-end=&quot;431&quot; data-start=&quot;329&quot;&gt;&lt;strong data-end=&quot;343&quot; data-start=&quot;329&quot;&gt;Atributos&lt;/strong&gt;&lt;br data-end=&quot;346&quot; data-start=&quot;343&quot;&gt;&lt;br&gt;id&lt;br data-end=&quot;351&quot; data-start=&quot;348&quot;&gt;&lt;br&gt;first_name&lt;br data-end=&quot;364&quot; data-start=&quot;361&quot;&gt;&lt;br&gt;last_name&lt;br data-end=&quot;376&quot; data-start=&quot;373&quot;&gt;&lt;br&gt;email&lt;br data-end=&quot;384&quot; data-start=&quot;381&quot;&gt;&lt;br&gt;password&lt;br data-end=&quot;395&quot; data-start=&quot;392&quot;&gt;&lt;br&gt;is_admin&lt;br data-end=&quot;406&quot; data-start=&quot;403&quot;&gt;&lt;br&gt;created_at&lt;br data-end=&quot;419&quot; data-start=&quot;416&quot;&gt;&lt;br&gt;updated_at&lt;span style=&quot;background-color: transparent; color: light-dark(rgb(0, 0, 0), rgb(255, 255, 255));&quot;&gt;()&lt;/span&gt;&lt;/p&gt;&lt;p data-end=&quot;431&quot; data-start=&quot;329&quot;&gt;&lt;span style=&quot;background-color: transparent; color: light-dark(rgb(0, 0, 0), rgb(255, 255, 255));&quot;&gt;&lt;br&gt;&lt;/span&gt;&lt;/p&gt;&lt;p data-end=&quot;431&quot; data-start=&quot;329&quot;&gt;&lt;strong style=&quot;text-wrap: wrap;&quot; data-end=&quot;942&quot; data-start=&quot;930&quot;&gt;Métodos:&lt;/strong&gt;&lt;br style=&quot;text-wrap: wrap;&quot; data-end=&quot;945&quot; data-start=&quot;942&quot;&gt;&lt;br style=&quot;text-wrap: wrap;&quot;&gt;&lt;span style=&quot;text-wrap: wrap;&quot;&gt;create()&lt;/span&gt;&lt;br style=&quot;text-wrap: wrap;&quot; data-end=&quot;956&quot; data-start=&quot;953&quot;&gt;&lt;br style=&quot;text-wrap: wrap;&quot;&gt;&lt;span style=&quot;text-wrap: wrap;&quot;&gt;update()&lt;/span&gt;&lt;br style=&quot;text-wrap: wrap;&quot; data-end=&quot;967&quot; data-start=&quot;964&quot;&gt;&lt;br style=&quot;text-wrap: wrap;&quot;&gt;&lt;span style=&quot;text-wrap: wrap;&quot;&gt;delete()&lt;/span&gt;&lt;span style=&quot;background-color: transparent; color: light-dark(rgb(0, 0, 0), rgb(255, 255, 255));&quot;&gt;&lt;br&gt;&lt;/span&gt;&lt;/p&gt;" style="text;html=1;align=center;verticalAlign=middle;resizable=0;points=[];autosize=1;strokeColor=none;fillColor=none;" parent="Rc_bDY0J4DT7QfqLgyY9-2" vertex="1">
          <mxGeometry x="35" y="70" width="90" height="420" as="geometry" />
        </mxCell>
        <mxCell id="Rc_bDY0J4DT7QfqLgyY9-5" value="Clase - Place" style="swimlane;whiteSpace=wrap;html=1;startSize=50;" parent="1" vertex="1">
          <mxGeometry x="260" y="190" width="170" height="560" as="geometry" />
        </mxCell>
        <mxCell id="Rc_bDY0J4DT7QfqLgyY9-7" value="&lt;p data-end=&quot;618&quot; data-start=&quot;507&quot;&gt;&lt;strong data-end=&quot;521&quot; data-start=&quot;507&quot;&gt;Atributos&lt;/strong&gt;&lt;br data-end=&quot;524&quot; data-start=&quot;521&quot;&gt;&lt;br&gt;id&lt;br data-end=&quot;529&quot; data-start=&quot;526&quot;&gt;&lt;br&gt;title&lt;br data-end=&quot;537&quot; data-start=&quot;534&quot;&gt;&lt;br&gt;description&lt;br data-end=&quot;551&quot; data-start=&quot;548&quot;&gt;&lt;br&gt;price&lt;br data-end=&quot;559&quot; data-start=&quot;556&quot;&gt;&lt;br&gt;latitude&lt;br data-end=&quot;570&quot; data-start=&quot;567&quot;&gt;&lt;br&gt;longitude&lt;br data-end=&quot;582&quot; data-start=&quot;579&quot;&gt;&lt;br&gt;created_at&lt;br data-end=&quot;595&quot; data-start=&quot;592&quot;&gt;&lt;br&gt;updated_at&lt;br data-end=&quot;608&quot; data-start=&quot;605&quot;&gt;&lt;br&gt;owner_id&lt;/p&gt;&lt;p data-end=&quot;618&quot; data-start=&quot;507&quot;&gt;&lt;br&gt;&lt;/p&gt;&lt;p data-end=&quot;618&quot; data-start=&quot;507&quot;&gt;&lt;strong style=&quot;text-wrap: wrap;&quot; data-end=&quot;942&quot; data-start=&quot;930&quot;&gt;Métodos:&lt;/strong&gt;&lt;br style=&quot;text-wrap: wrap;&quot; data-end=&quot;945&quot; data-start=&quot;942&quot;&gt;&lt;br style=&quot;text-wrap: wrap;&quot;&gt;&lt;span style=&quot;text-wrap: wrap;&quot;&gt;create()&lt;/span&gt;&lt;br style=&quot;text-wrap: wrap;&quot; data-end=&quot;956&quot; data-start=&quot;953&quot;&gt;&lt;br style=&quot;text-wrap: wrap;&quot;&gt;&lt;span style=&quot;text-wrap: wrap;&quot;&gt;update()&lt;/span&gt;&lt;br style=&quot;text-wrap: wrap;&quot; data-end=&quot;967&quot; data-start=&quot;964&quot;&gt;&lt;br style=&quot;text-wrap: wrap;&quot;&gt;&lt;span style=&quot;text-wrap: wrap;&quot;&gt;delete()&lt;/span&gt;&lt;br&gt;&lt;/p&gt;" style="text;html=1;align=center;verticalAlign=middle;resizable=0;points=[];autosize=1;strokeColor=none;fillColor=none;" parent="Rc_bDY0J4DT7QfqLgyY9-5" vertex="1">
          <mxGeometry x="45" y="80" width="80" height="450" as="geometry" />
        </mxCell>
        <mxCell id="Rc_bDY0J4DT7QfqLgyY9-8" value="Clase - Review" style="swimlane;whiteSpace=wrap;html=1;startSize=50;" parent="1" vertex="1">
          <mxGeometry x="470" y="190" width="150" height="490" as="geometry" />
        </mxCell>
        <mxCell id="Rc_bDY0J4DT7QfqLgyY9-9" value="&lt;strong data-end=&quot;709&quot; data-start=&quot;695&quot;&gt;Atributos&lt;/strong&gt;&lt;br data-end=&quot;712&quot; data-start=&quot;709&quot;&gt;&lt;br&gt;id&lt;br data-end=&quot;717&quot; data-start=&quot;714&quot;&gt;&lt;br&gt;place_id&lt;br data-end=&quot;728&quot; data-start=&quot;725&quot;&gt;&lt;br&gt;user_id&lt;br data-end=&quot;738&quot; data-start=&quot;735&quot;&gt;&lt;br&gt;rating&lt;br data-end=&quot;747&quot; data-start=&quot;744&quot;&gt;&lt;br&gt;comment&lt;br data-end=&quot;757&quot; data-start=&quot;754&quot;&gt;&lt;br&gt;created_at&lt;br data-end=&quot;770&quot; data-start=&quot;767&quot;&gt;&lt;br&gt;updated_at&lt;div&gt;&lt;br&gt;&lt;/div&gt;&lt;div&gt;&lt;br&gt;&lt;div&gt;&lt;br&gt;&lt;/div&gt;&lt;div&gt;&lt;strong style=&quot;text-wrap: wrap;&quot; data-end=&quot;942&quot; data-start=&quot;930&quot;&gt;Métodos:&lt;/strong&gt;&lt;br style=&quot;text-wrap: wrap;&quot; data-end=&quot;945&quot; data-start=&quot;942&quot;&gt;&lt;br style=&quot;text-wrap: wrap;&quot;&gt;&lt;span style=&quot;text-wrap: wrap;&quot;&gt;create()&lt;/span&gt;&lt;br style=&quot;text-wrap: wrap;&quot; data-end=&quot;956&quot; data-start=&quot;953&quot;&gt;&lt;br style=&quot;text-wrap: wrap;&quot;&gt;&lt;span style=&quot;text-wrap: wrap;&quot;&gt;update()&lt;/span&gt;&lt;br style=&quot;text-wrap: wrap;&quot; data-end=&quot;967&quot; data-start=&quot;964&quot;&gt;&lt;br style=&quot;text-wrap: wrap;&quot;&gt;&lt;span style=&quot;text-wrap: wrap;&quot;&gt;delete()&lt;/span&gt;&lt;br&gt;&lt;/div&gt;&lt;/div&gt;" style="text;html=1;align=center;verticalAlign=middle;resizable=0;points=[];autosize=1;strokeColor=none;fillColor=none;" parent="Rc_bDY0J4DT7QfqLgyY9-8" vertex="1">
          <mxGeometry x="35" y="80" width="80" height="370" as="geometry" />
        </mxCell>
        <mxCell id="Rc_bDY0J4DT7QfqLgyY9-10" value="Clase Amenity" style="swimlane;whiteSpace=wrap;html=1;startSize=50;" parent="1" vertex="1">
          <mxGeometry x="650" y="190" width="140" height="410" as="geometry" />
        </mxCell>
        <mxCell id="Rc_bDY0J4DT7QfqLgyY9-11" value="&lt;strong data-end=&quot;874&quot; data-start=&quot;860&quot;&gt;Atributos&lt;/strong&gt;&lt;br data-end=&quot;877&quot; data-start=&quot;874&quot;&gt;&lt;br&gt;id&lt;br data-end=&quot;882&quot; data-start=&quot;879&quot;&gt;&lt;br&gt;name&lt;br data-end=&quot;889&quot; data-start=&quot;886&quot;&gt;&lt;br&gt;description&lt;br data-end=&quot;903&quot; data-start=&quot;900&quot;&gt;&lt;br&gt;created_at&lt;br data-end=&quot;916&quot; data-start=&quot;913&quot;&gt;&lt;br&gt;updated_at&lt;div&gt;&lt;br&gt;&lt;/div&gt;&lt;div&gt;&lt;br&gt;&lt;/div&gt;&lt;div&gt;&lt;strong style=&quot;text-wrap: wrap;&quot; data-end=&quot;942&quot; data-start=&quot;930&quot;&gt;Métodos:&lt;/strong&gt;&lt;br style=&quot;text-wrap: wrap;&quot; data-end=&quot;945&quot; data-start=&quot;942&quot;&gt;&lt;br style=&quot;text-wrap: wrap;&quot;&gt;&lt;span style=&quot;text-wrap: wrap;&quot;&gt;create()&lt;/span&gt;&lt;br style=&quot;text-wrap: wrap;&quot; data-end=&quot;956&quot; data-start=&quot;953&quot;&gt;&lt;br style=&quot;text-wrap: wrap;&quot;&gt;&lt;span style=&quot;text-wrap: wrap;&quot;&gt;update()&lt;/span&gt;&lt;br style=&quot;text-wrap: wrap;&quot; data-end=&quot;967&quot; data-start=&quot;964&quot;&gt;&lt;br style=&quot;text-wrap: wrap;&quot;&gt;&lt;span style=&quot;text-wrap: wrap;&quot;&gt;delete()&lt;/span&gt;&lt;br&gt;&lt;/div&gt;" style="text;html=1;align=center;verticalAlign=middle;resizable=0;points=[];autosize=1;strokeColor=none;fillColor=none;" parent="Rc_bDY0J4DT7QfqLgyY9-10" vertex="1">
          <mxGeometry x="30" y="80" width="80" height="300" as="geometry" />
        </mxCell>
      </root>
    </mxGraphModel>
  </diagram>
</mxfile>
